<mxfile host="app.diagrams.net" agent="Mozilla/5.0 (X11; Linux x86_64; rv:142.0) Gecko/20100101 Firefox/142.0" version="28.1.2">
  <diagram name="Page-1" id="2xHg3-iwYYBxuC2jLP-1">
    <mxGraphModel dx="571" dy="648" grid="1" gridSize="10" guides="1" tooltips="1" connect="1" arrows="1" fold="1" page="1" pageScale="1" pageWidth="850" pageHeight="1100" math="0" shadow="0">
      <root>
        <mxCell id="0" />
        <mxCell id="1" parent="0" />
        <mxCell id="PcxKBBtVjIeMISLlH0K2-59" value="OldGamepad" style="swimlane;fontStyle=0;childLayout=stackLayout;horizontal=1;startSize=26;fillColor=none;horizontalStack=0;resizeParent=1;resizeParentMax=0;resizeLast=0;collapsible=1;marginBottom=0;whiteSpace=wrap;html=1;" vertex="1" parent="1">
          <mxGeometry x="320" y="750" width="140" height="78" as="geometry" />
        </mxCell>
        <mxCell id="PcxKBBtVjIeMISLlH0K2-60" value="+ press_a()" style="text;strokeColor=none;fillColor=none;align=left;verticalAlign=top;spacingLeft=4;spacingRight=4;overflow=hidden;rotatable=0;points=[[0,0.5],[1,0.5]];portConstraint=eastwest;whiteSpace=wrap;html=1;" vertex="1" parent="PcxKBBtVjIeMISLlH0K2-59">
          <mxGeometry y="26" width="140" height="26" as="geometry" />
        </mxCell>
        <mxCell id="PcxKBBtVjIeMISLlH0K2-61" value="+ press_b()" style="text;strokeColor=none;fillColor=none;align=left;verticalAlign=top;spacingLeft=4;spacingRight=4;overflow=hidden;rotatable=0;points=[[0,0.5],[1,0.5]];portConstraint=eastwest;whiteSpace=wrap;html=1;" vertex="1" parent="PcxKBBtVjIeMISLlH0K2-59">
          <mxGeometry y="52" width="140" height="26" as="geometry" />
        </mxCell>
        <mxCell id="PcxKBBtVjIeMISLlH0K2-63" value="ModernController" style="swimlane;fontStyle=0;childLayout=stackLayout;horizontal=1;startSize=26;fillColor=none;horizontalStack=0;resizeParent=1;resizeParentMax=0;resizeLast=0;collapsible=1;marginBottom=0;whiteSpace=wrap;html=1;" vertex="1" parent="1">
          <mxGeometry x="320" y="575" width="140" height="78" as="geometry" />
        </mxCell>
        <mxCell id="PcxKBBtVjIeMISLlH0K2-64" value="+ action()" style="text;strokeColor=none;fillColor=none;align=left;verticalAlign=top;spacingLeft=4;spacingRight=4;overflow=hidden;rotatable=0;points=[[0,0.5],[1,0.5]];portConstraint=eastwest;whiteSpace=wrap;html=1;" vertex="1" parent="PcxKBBtVjIeMISLlH0K2-63">
          <mxGeometry y="26" width="140" height="26" as="geometry" />
        </mxCell>
        <mxCell id="PcxKBBtVjIeMISLlH0K2-65" value="+ jump()" style="text;strokeColor=none;fillColor=none;align=left;verticalAlign=top;spacingLeft=4;spacingRight=4;overflow=hidden;rotatable=0;points=[[0,0.5],[1,0.5]];portConstraint=eastwest;whiteSpace=wrap;html=1;" vertex="1" parent="PcxKBBtVjIeMISLlH0K2-63">
          <mxGeometry y="52" width="140" height="26" as="geometry" />
        </mxCell>
        <mxCell id="PcxKBBtVjIeMISLlH0K2-68" value="Game" style="swimlane;fontStyle=1;align=center;verticalAlign=top;childLayout=stackLayout;horizontal=1;startSize=26;horizontalStack=0;resizeParent=1;resizeParentMax=0;resizeLast=0;collapsible=1;marginBottom=0;whiteSpace=wrap;html=1;" vertex="1" parent="1">
          <mxGeometry x="30" y="540" width="160" height="80" as="geometry" />
        </mxCell>
        <mxCell id="PcxKBBtVjIeMISLlH0K2-69" value="&lt;div&gt;+play()&lt;/div&gt;&lt;div&gt;&lt;span style=&quot;white-space: pre;&quot;&gt;&#x9;&lt;/span&gt;controller.action()&lt;/div&gt;&lt;div&gt;&lt;span style=&quot;white-space: pre;&quot;&gt;&#x9;&lt;/span&gt;controller.jump()&lt;/div&gt;&lt;div&gt;&lt;br&gt;&lt;/div&gt;" style="text;strokeColor=none;fillColor=none;align=left;verticalAlign=top;spacingLeft=4;spacingRight=4;overflow=hidden;rotatable=0;points=[[0,0.5],[1,0.5]];portConstraint=eastwest;whiteSpace=wrap;html=1;" vertex="1" parent="PcxKBBtVjIeMISLlH0K2-68">
          <mxGeometry y="26" width="160" height="54" as="geometry" />
        </mxCell>
        <mxCell id="PcxKBBtVjIeMISLlH0K2-73" value="GamepadAdapter" style="swimlane;fontStyle=0;childLayout=stackLayout;horizontal=1;startSize=26;fillColor=none;horizontalStack=0;resizeParent=1;resizeParentMax=0;resizeLast=0;collapsible=1;marginBottom=0;whiteSpace=wrap;html=1;" vertex="1" parent="1">
          <mxGeometry x="10" y="700" width="180" height="160" as="geometry" />
        </mxCell>
        <mxCell id="PcxKBBtVjIeMISLlH0K2-74" value="- old_gamepad: OldGamepad" style="text;strokeColor=none;fillColor=none;align=left;verticalAlign=top;spacingLeft=4;spacingRight=4;overflow=hidden;rotatable=0;points=[[0,0.5],[1,0.5]];portConstraint=eastwest;whiteSpace=wrap;html=1;" vertex="1" parent="PcxKBBtVjIeMISLlH0K2-73">
          <mxGeometry y="26" width="180" height="26" as="geometry" />
        </mxCell>
        <mxCell id="PcxKBBtVjIeMISLlH0K2-82" value="" style="line;strokeWidth=1;fillColor=none;align=left;verticalAlign=middle;spacingTop=-1;spacingLeft=3;spacingRight=3;rotatable=0;labelPosition=right;points=[];portConstraint=eastwest;strokeColor=inherit;" vertex="1" parent="PcxKBBtVjIeMISLlH0K2-73">
          <mxGeometry y="52" width="180" height="8" as="geometry" />
        </mxCell>
        <mxCell id="PcxKBBtVjIeMISLlH0K2-75" value="+ __init__(old_gamepad)" style="text;strokeColor=none;fillColor=none;align=left;verticalAlign=top;spacingLeft=4;spacingRight=4;overflow=hidden;rotatable=0;points=[[0,0.5],[1,0.5]];portConstraint=eastwest;whiteSpace=wrap;html=1;" vertex="1" parent="PcxKBBtVjIeMISLlH0K2-73">
          <mxGeometry y="60" width="180" height="26" as="geometry" />
        </mxCell>
        <mxCell id="PcxKBBtVjIeMISLlH0K2-76" value="&lt;div&gt;+ action()&lt;/div&gt;&lt;div&gt;&amp;nbsp;return old_gamepad.press_a()&lt;br&gt;&lt;div&gt;+ jump()&lt;/div&gt;&lt;div&gt;&amp;nbsp;return old_gamepad.press_b()&lt;/div&gt;&lt;div&gt;&lt;br&gt;&lt;/div&gt;&lt;/div&gt;" style="text;strokeColor=none;fillColor=none;align=left;verticalAlign=top;spacingLeft=4;spacingRight=4;overflow=hidden;rotatable=0;points=[[0,0.5],[1,0.5]];portConstraint=eastwest;whiteSpace=wrap;html=1;" vertex="1" parent="PcxKBBtVjIeMISLlH0K2-73">
          <mxGeometry y="86" width="180" height="74" as="geometry" />
        </mxCell>
        <mxCell id="PcxKBBtVjIeMISLlH0K2-92" value="Use" style="endArrow=open;endSize=12;dashed=1;html=1;rounded=0;exitX=0.458;exitY=1.021;exitDx=0;exitDy=0;exitPerimeter=0;entryX=0.471;entryY=-0.004;entryDx=0;entryDy=0;entryPerimeter=0;" edge="1" parent="1" source="PcxKBBtVjIeMISLlH0K2-69" target="PcxKBBtVjIeMISLlH0K2-73">
          <mxGeometry width="160" relative="1" as="geometry">
            <mxPoint x="150" y="660" as="sourcePoint" />
            <mxPoint x="310" y="660" as="targetPoint" />
          </mxGeometry>
        </mxCell>
        <mxCell id="PcxKBBtVjIeMISLlH0K2-93" value="Use" style="endArrow=open;endSize=12;dashed=1;html=1;rounded=0;exitX=1;exitY=0.5;exitDx=0;exitDy=0;entryX=0;entryY=0.25;entryDx=0;entryDy=0;" edge="1" parent="1" source="PcxKBBtVjIeMISLlH0K2-69" target="PcxKBBtVjIeMISLlH0K2-63">
          <mxGeometry width="160" relative="1" as="geometry">
            <mxPoint x="228" y="580" as="sourcePoint" />
            <mxPoint x="220" y="658" as="targetPoint" />
          </mxGeometry>
        </mxCell>
        <mxCell id="PcxKBBtVjIeMISLlH0K2-94" value="" style="endArrow=diamondThin;endFill=1;endSize=24;html=1;rounded=0;exitX=1.004;exitY=0.813;exitDx=0;exitDy=0;exitPerimeter=0;entryX=-0.001;entryY=0.659;entryDx=0;entryDy=0;entryPerimeter=0;" edge="1" parent="1" source="PcxKBBtVjIeMISLlH0K2-75" target="PcxKBBtVjIeMISLlH0K2-60">
          <mxGeometry width="160" relative="1" as="geometry">
            <mxPoint x="200" y="710" as="sourcePoint" />
            <mxPoint x="390" y="680" as="targetPoint" />
          </mxGeometry>
        </mxCell>
        <mxCell id="PcxKBBtVjIeMISLlH0K2-96" value="адаптер" style="text;html=1;align=center;verticalAlign=middle;whiteSpace=wrap;rounded=0;" vertex="1" parent="1">
          <mxGeometry x="50" y="870" width="60" height="30" as="geometry" />
        </mxCell>
        <mxCell id="PcxKBBtVjIeMISLlH0K2-97" value="существующий класс с несовместимым интерфейсом" style="text;html=1;align=center;verticalAlign=middle;resizable=0;points=[];autosize=1;strokeColor=none;fillColor=none;" vertex="1" parent="1">
          <mxGeometry x="215" y="838" width="290" height="30" as="geometry" />
        </mxCell>
        <mxCell id="PcxKBBtVjIeMISLlH0K2-98" value="клиент" style="text;html=1;align=center;verticalAlign=middle;resizable=0;points=[];autosize=1;strokeColor=none;fillColor=none;" vertex="1" parent="1">
          <mxGeometry x="80" y="498" width="60" height="30" as="geometry" />
        </mxCell>
        <mxCell id="PcxKBBtVjIeMISLlH0K2-99" value="интерфейс который ожидает клиент" style="text;html=1;align=center;verticalAlign=middle;resizable=0;points=[];autosize=1;strokeColor=none;fillColor=none;" vertex="1" parent="1">
          <mxGeometry x="270" y="528" width="200" height="30" as="geometry" />
        </mxCell>
      </root>
    </mxGraphModel>
  </diagram>
</mxfile>
